Coordinates
version=1
nRows=14
nColumns=40
inDegrees=yes

Units are S.I. units (second, meters, Newtons, ...)
If the header above contains a line with 'inDegrees', this indicates whether rotational values are in degrees (yes) or radians (no).

endheader
time	pelvis_tilt	pelvis_list	pelvis_rotation	pelvis_tx	pelvis_ty	pelvis_tz	hip_flexion_r	hip_adduction_r	hip_rotation_r	knee_angle_r	knee_angle_r_beta	ankle_angle_r	subtalar_angle_r	mtp_angle_r	hip_flexion_l	hip_adduction_l	hip_rotation_l	knee_angle_l	knee_angle_l_beta	ankle_angle_l	subtalar_angle_l	mtp_angle_l	lumbar_extension	lumbar_bending	lumbar_rotation	arm_flex_r	arm_add_r	arm_rot_r	elbow_flex_r	pro_sup_r	wrist_flex_r	wrist_dev_r	arm_flex_l	arm_add_l	arm_rot_l	elbow_flex_l	pro_sup_l	wrist_flex_l	wrist_dev_l
      0.91000000	     -4.50410020	      3.22434395	    -89.89367520	      0.17645390	      0.89919534	      0.05873558	    -13.91466133	      7.80050474	      5.31272438	     -2.21946874	     -0.03873704	     15.33189250	      0.00000000	      0.00000000	     31.15607015	     -6.57163610	      0.76548173	      4.11418170	      0.07180602	     -4.08645362	      0.00000000	      0.00000000	     -5.80040106	      4.96657054	     -2.20376342	      0.00000000	      0.00000000	      0.00000000	      0.00000000	      0.00000000	      0.00000000	      0.00000000	      0.00000000	      0.00000000	      0.00000000	      0.00000000	      0.00000000	      0.00000000	      0.00000000
      0.92000000	     -4.52754431	      3.35945522	    -89.89568951	      0.17706120	      0.89694026	      0.06963005	    -14.48516533	      7.78355367	      5.45707552	     -2.02753139	     -0.03538710	     16.07222097	     -0.00000000	      0.00000000	     31.16378328	     -6.38584681	      1.46286668	      3.71910908	      0.06491070	     -3.96639960	      0.00000000	     -0.00000000	     -5.60340651	      4.88787105	     -2.24140264	      0.00000000	      0.00000000	     -0.00000000	      0.00000000	      0.00000000	      0.00000000	     -0.00000000	     -0.00000000	      0.00000000	      0.00000000	      0.00000000	      0.00000000	     -0.00000000	     -0.00000000
      0.93000000	     -4.45678184	      3.50119346	    -89.89819842	      0.17784445	      0.89476974	      0.08053641	    -14.96674795	      7.65553315	      5.47900597	     -1.69199191	     -0.02953083	     16.64095283	      0.00000000	      0.00000000	     31.29900833	     -6.09137571	      2.00568943	      3.86120014	      0.06739066	     -3.88419980	      0.00000000	      0.00000000	     -5.41443353	      4.71307970	     -2.31723867	      0.00000000	      0.00000000	      0.00000000	      0.00000000	      0.00000000	      0.00000000	      0.00000000	      0.00000000	      0.00000000	      0.00000000	      0.00000000	      0.00000000	      0.00000000	      0.00000000
      0.94000000	     -4.33597271	      3.61640357	    -89.90101148	      0.17877021	      0.89275078	      0.09157654	    -15.43903901	      7.46721247	      5.42921836	     -1.27126747	     -0.02218780	     17.21831005	     -0.00000000	     -0.00000000	     31.46522365	     -5.73321009	      2.43136743	      4.38294513	      0.07649682	     -3.86853401	     -0.00000000	      0.00000000	     -5.25244765	      4.49747947	     -2.39089595	     -0.00000000	     -0.00000000	     -0.00000000	      0.00000000	      0.00000000	     -0.00000000	     -0.00000000	     -0.00000000	     -0.00000000	     -0.00000000	      0.00000000	      0.00000000	      0.00000000	      0.00000000
      0.95000000	     -4.21884553	      3.77405218	    -89.90295627	      0.17980703	      0.89078684	      0.10270329	    -15.84715922	      7.27165960	      5.30598063	     -0.85389421	     -0.01490327	     17.31644909	      0.00000000	      0.00000000	     31.74284514	     -5.36733960	      2.85904024	      5.23105114	      0.09129907	     -4.07128151	      0.00000000	      0.00000000	     -5.03045795	      4.28071777	     -2.44384791	      0.00000000	      0.00000000	      0.00000000	      0.00000000	      0.00000000	      0.00000000	      0.00000000	      0.00000000	      0.00000000	      0.00000000	      0.00000000	      0.00000000	      0.00000000	      0.00000000
      0.96000000	     -4.04956817	      3.91125419	    -89.90540926	      0.18096072	      0.88901279	      0.11396956	    -16.24105859	      7.01133819	      5.20058632	     -0.35971147	     -0.00627815	     17.41931313	      0.00000000	      0.00000000	     32.01954307	     -4.93439995	      3.32593282	      6.31491777	      0.11021611	     -4.37757822	      0.00000000	      0.00000000	     -4.82506365	      4.01283547	     -2.50041156	      0.00000000	      0.00000000	      0.00000000	      0.00000000	      0.00000000	      0.00000000	      0.00000000	      0.00000000	      0.00000000	      0.00000000	      0.00000000	      0.00000000	      0.00000000	      0.00000000
      0.97000000	     -3.77231682	      4.00560515	    -89.90829181	      0.18223118	      0.88743513	      0.12545855	    -16.65970316	      6.63723860	      5.14096073	      0.26757880	      0.00467013	     18.34629785	      0.00000000	      0.00000000	     32.32115627	     -4.40495910	      3.36193823	      7.69979373	      0.13438675	     -4.79534476	      0.00000000	      0.00000000	     -4.64974035	      3.61358767	     -2.57658339	      0.00000000	      0.00000000	      0.00000000	      0.00000000	      0.00000000	      0.00000000	      0.00000000	      0.00000000	      0.00000000	      0.00000000	      0.00000000	      0.00000000	      0.00000000	      0.00000000
      0.98000000	     -3.57392701	      4.11672758	    -89.91030298	      0.18363275	      0.88605010	      0.13699451	    -17.00452784	      6.32349289	      5.02897129	      0.89355882	      0.01559554	     18.16102741	      0.00000000	      0.00000000	     32.59170041	     -3.92020198	      3.94160228	      9.09153152	      0.15867716	     -5.30911355	      0.00000000	      0.00000000	     -4.46187361	      3.31928613	     -2.60730818	      0.00000000	      0.00000000	      0.00000000	      0.00000000	      0.00000000	      0.00000000	      0.00000000	      0.00000000	      0.00000000	      0.00000000	      0.00000000	      0.00000000	      0.00000000	      0.00000000
      0.99000000	     -3.34440543	      4.20166019	    -89.91188507	      0.18512335	      0.88492870	      0.14870242	    -17.33147212	      5.96747037	      4.95305035	      1.60971388	      0.02809481	     17.98577504	      0.00000000	      0.00000000	     32.84621851	     -3.40684968	      4.43350434	     10.60693677	      0.18512597	     -5.89279096	      0.00000000	      0.00000000	     -4.29017238	      2.99098610	     -2.63626512	      0.00000000	      0.00000000	      0.00000000	      0.00000000	      0.00000000	      0.00000000	      0.00000000	      0.00000000	      0.00000000	      0.00000000	      0.00000000	      0.00000000	      0.00000000	      0.00000000
      1.00000000	     -3.10408420	      4.26685673	    -89.91417635	      0.18654350	      0.88397041	      0.16060489	    -17.60522541	      5.60275325	      4.71719579	      2.51576336	      0.04390835	     18.44317419	      0.00000000	      0.00000000	     33.21193187	     -2.96799101	      4.15731836	     12.39009083	      0.21624788	     -6.73394658	      0.00000000	      0.00000000	     -4.10473311	      2.63704310	     -2.65425894	      0.00000000	      0.00000000	      0.00000000	      0.00000000	      0.00000000	      0.00000000	      0.00000000	      0.00000000	      0.00000000	      0.00000000	      0.00000000	      0.00000000	      0.00000000	      0.00000000
      1.01000000	     -2.88297509	      4.30277695	    -89.91557139	      0.18815065	      0.88343056	      0.17255717	    -17.84908595	      5.23378095	      4.74569006	      3.44018695	      0.06004259	     18.00359316	      0.00000000	      0.00000000	     33.36716432	     -2.47044976	      4.69420873	     13.95187816	      0.24350621	     -7.23332570	      0.00000000	      0.00000000	     -3.96002131	      2.32417537	     -2.66633336	      0.00000000	      0.00000000	      0.00000000	      0.00000000	      0.00000000	      0.00000000	      0.00000000	      0.00000000	      0.00000000	      0.00000000	      0.00000000	      0.00000000	      0.00000000	      0.00000000
      1.02000000	     -2.67116669	      4.31046784	    -89.91714699	      0.18979770	      0.88322602	      0.18462225	    -18.03958730	      4.86135262	      4.83461604	      4.48904721	      0.07834865	     17.46326084	      0.00000000	      0.00000000	     33.44343901	     -2.00113349	      5.10756315	     15.47613043	      0.27010943	     -7.63615676	      0.00000000	      0.00000000	     -3.84170488	      2.01812894	     -2.68134755	      0.00000000	      0.00000000	      0.00000000	      0.00000000	      0.00000000	      0.00000000	      0.00000000	      0.00000000	      0.00000000	      0.00000000	      0.00000000	      0.00000000	      0.00000000	      0.00000000
      1.03000000	     -2.52862513	      4.25584548	    -89.91862812	      0.19128797	      0.88331018	      0.19674679	    -18.08905406	      4.54825794	      4.39632788	      5.86217209	      0.10231420	     16.98031567	      0.00000000	      0.00000000	     33.61042509	     -1.71448751	      4.80408895	     17.34511602	      0.30272938	     -7.61540556	      0.00000000	      0.00000000	     -3.81259726	      1.77438839	     -2.62071755	      0.00000000	      0.00000000	      0.00000000	      0.00000000	      0.00000000	      0.00000000	      0.00000000	      0.00000000	      0.00000000	      0.00000000	      0.00000000	      0.00000000	      0.00000000	      0.00000000
      1.04000000	     -2.35526399	      4.20425173	    -89.91936915	      0.19292673	      0.88384761	      0.20897780	    -18.13172307	      4.19625038	      4.65045087	      7.19502748	      0.12557692	     16.16697651	      0.00000000	      0.00000000	     33.48387007	     -1.31226457	      5.16581764	     18.72075962	      0.32673889	     -7.67958906	      0.00000000	      0.00000000	     -3.72631463	      1.50628105	     -2.62789678	      0.00000000	      0.00000000	      0.00000000	      0.00000000	      0.00000000	      0.00000000	      0.00000000	      0.00000000	      0.00000000	      0.00000000	      0.00000000	      0.00000000	      0.00000000	      0.00000000
